<svg
width="149"
height="135"
fill="none"
style="flex-shrink:0"
xmlns="http://www.w3.org/2000/svg"
>
<rect x="27" y="11" width="122" height="65.378" rx="12.842" fill="#F8D57E" />
<path
  d="M121.252 88.052c-.899 1.557-3.146 1.557-4.044 0L107.097 70.54c-.899-1.556.225-3.502 2.022-3.502h20.221c1.798 0 2.921 1.946 2.022 3.502l-10.11 17.512z"
  fill="#F8D57E"
/>
<path
  d="M56.75 28.723l-2.594 8.95h-1.31l-2.08-7.204-2.157 7.205-1.297.013-2.505-8.964h1.246l1.952 7.59 2.157-7.59h1.31l2.055 7.564 1.965-7.564h1.259zm5.337 9.04c-.83 0-1.588-.192-2.273-.577a4.384 4.384 0 01-1.63-1.631c-.394-.702-.591-1.49-.591-2.363s.197-1.657.59-2.35a4.264 4.264 0 011.631-1.631 4.479 4.479 0 012.273-.59c.84 0 1.601.196 2.286.59a4.198 4.198 0 011.618 1.618c.394.694.591 1.481.591 2.363 0 .882-.197 1.67-.59 2.363a4.29 4.29 0 01-1.619 1.63 4.581 4.581 0 01-2.286.579zm0-1.014c.625 0 1.186-.145 1.683-.436a3.019 3.019 0 001.181-1.246c.291-.54.437-1.164.437-1.875 0-.72-.146-1.344-.437-1.875a3.043 3.043 0 00-1.168-1.246c-.497-.29-1.062-.436-1.696-.436-.633 0-1.198.145-1.695.436a3.13 3.13 0 00-1.181 1.246c-.283.53-.424 1.156-.424 1.875 0 .71.141 1.336.424 1.875.29.54.685.955 1.181 1.246.505.29 1.07.436 1.695.436zm17.288-8.026l-2.594 8.95h-1.31l-2.08-7.204-2.158 7.205-1.297.013-2.505-8.964h1.246l1.952 7.59 2.158-7.59h1.31l2.054 7.564 1.965-7.564h1.259zm2.794 0l-.141 6.42h-.976l-.142-6.42h1.259zm-.578 9.028a.769.769 0 01-.565-.231.769.769 0 01-.231-.565c0-.223.077-.411.231-.565a.768.768 0 01.565-.232c.214 0 .394.078.54.232a.769.769 0 01.23.565c0 .222-.077.41-.23.565a.712.712 0 01-.54.23zm11.82-9.028v.95h-2.44v8h-1.168v-8H87.35v-.95h6.062zm4.932 1.785c.531 0 1.01.116 1.438.347.429.222.762.56 1.002 1.014.248.454.373 1.006.373 1.657v4.148H100v-3.981c0-.702-.176-1.237-.527-1.605-.35-.377-.83-.566-1.438-.566-.617 0-1.109.193-1.477.578-.36.386-.54.946-.54 1.683v3.89H94.85v-9.502h1.169v3.467c.23-.36.548-.638.95-.835.411-.197.869-.295 1.374-.295zm4.285 3.621c0-.719.145-1.348.437-1.887a3.172 3.172 0 011.194-1.272c.514-.3 1.083-.45 1.708-.45.616 0 1.151.134 1.605.399.454.265.792.6 1.015 1.002v-1.285h1.181v7.038h-1.181v-1.31c-.232.41-.578.753-1.041 1.027-.453.266-.984.398-1.592.398a3.19 3.19 0 01-1.695-.462 3.242 3.242 0 01-1.194-1.297c-.292-.556-.437-1.19-.437-1.9zm5.959.013c0-.53-.107-.993-.321-1.387a2.212 2.212 0 00-.874-.899 2.287 2.287 0 00-1.194-.32 2.36 2.36 0 00-1.194.307c-.36.206-.647.506-.861.9-.214.393-.321.856-.321 1.386 0 .54.107 1.01.321 1.413.214.394.501.698.861.912a2.36 2.36 0 001.194.308 2.36 2.36 0 001.194-.308 2.3 2.3 0 00.874-.912c.214-.402.321-.869.321-1.4zm4.581-2.543v4.149c0 .342.073.586.219.732.145.137.398.205.757.205h.861v.989h-1.053c-.651 0-1.139-.15-1.464-.45-.325-.3-.488-.792-.488-1.476V31.6h-.912v-.964H112v-1.772h1.168v1.772h1.837v.963h-1.837zm3.433-2.876h1.297l-1.233 2.915h-.822l.758-2.915zm5.12 9.066c-.539 0-1.023-.09-1.451-.27a2.518 2.518 0 01-1.014-.77 2.072 2.072 0 01-.411-1.143h1.207c.034.351.197.638.488.86.3.223.689.335 1.169.335.445 0 .796-.099 1.053-.296.256-.197.385-.445.385-.745a.721.721 0 00-.411-.68c-.274-.154-.698-.304-1.271-.45a10.428 10.428 0 01-1.285-.41 2.432 2.432 0 01-.847-.63c-.231-.283-.347-.65-.347-1.104 0-.36.107-.69.321-.99.214-.299.518-.534.912-.705.394-.18.843-.27 1.348-.27.779 0 1.409.197 1.888.59.48.394.736.934.771 1.619h-1.169a1.203 1.203 0 00-.449-.886c-.266-.223-.625-.334-1.079-.334-.42 0-.754.09-1.002.27a.834.834 0 00-.372.706c0 .23.072.423.218.578.154.145.342.265.565.36.231.085.548.183.95.294.505.137.916.274 1.233.411.317.129.587.326.809.591.231.266.351.612.36 1.04 0 .386-.107.732-.321 1.04-.214.309-.518.553-.912.733-.385.17-.83.256-1.336.256zM46.669 49.171v9.503h-1.168V49.17h1.168zm5.061 9.618c-.659 0-1.258-.15-1.797-.45-.531-.299-.95-.722-1.259-1.27-.3-.557-.45-1.199-.45-1.927 0-.719.155-1.353.463-1.9.317-.557.745-.98 1.284-1.272.54-.3 1.143-.45 1.81-.45.669 0 1.272.15 1.812.45.539.291.963.71 1.27 1.259.318.548.476 1.185.476 1.913s-.163 1.37-.488 1.927c-.317.547-.75.971-1.297 1.27-.548.3-1.156.45-1.824.45zm0-1.027c.42 0 .814-.098 1.182-.295.368-.197.663-.493.886-.886.231-.394.347-.874.347-1.439 0-.565-.112-1.044-.334-1.438a2.143 2.143 0 00-.873-.873 2.394 2.394 0 00-1.169-.296 2.42 2.42 0 00-1.181.296c-.352.188-.634.48-.848.873-.214.394-.321.873-.321 1.438 0 .574.103 1.058.308 1.451.214.394.497.69.848.886.35.189.736.283 1.155.283zm8.215 1.027c-.66 0-1.259-.15-1.798-.45-.53-.299-.95-.722-1.259-1.27-.3-.557-.449-1.199-.449-1.927 0-.719.154-1.353.462-1.9.317-.557.745-.98 1.284-1.272.54-.3 1.143-.45 1.811-.45.668 0 1.272.15 1.811.45.54.291.963.71 1.271 1.259.317.548.475 1.185.475 1.913s-.162 1.37-.487 1.927c-.317.547-.75.971-1.298 1.27-.547.3-1.155.45-1.823.45zm0-1.027c.42 0 .813-.098 1.181-.295.369-.197.664-.493.886-.886.232-.394.347-.874.347-1.439 0-.565-.111-1.044-.334-1.438a2.143 2.143 0 00-.873-.873 2.394 2.394 0 00-1.169-.296 2.42 2.42 0 00-1.181.296c-.351.188-.634.48-.848.873-.214.394-.32.873-.32 1.438 0 .574.102 1.058.307 1.451.215.394.497.69.848.886.351.189.736.283 1.156.283zm9.075.912l-2.761-3.108v3.108H65.09V49.17h1.169v5.586l2.71-3.12h1.63l-3.313 3.505 3.326 3.532H69.02zm5.17.115c-.539 0-1.022-.09-1.45-.27a2.521 2.521 0 01-1.015-.77 2.083 2.083 0 01-.411-1.143h1.207c.034.351.197.638.488.86.3.223.69.335 1.169.335.445 0 .796-.099 1.053-.296.257-.197.385-.445.385-.745a.721.721 0 00-.41-.68c-.275-.154-.699-.304-1.272-.45a10.45 10.45 0 01-1.284-.41 2.439 2.439 0 01-.848-.63c-.231-.283-.347-.65-.347-1.104 0-.36.107-.69.321-.99.214-.299.518-.534.912-.706.394-.18.843-.27 1.349-.27.779 0 1.408.198 1.887.591.48.394.736.934.77 1.619h-1.168a1.2 1.2 0 00-.45-.886c-.265-.223-.624-.334-1.078-.334-.42 0-.754.09-1.002.27a.833.833 0 00-.372.706c0 .23.073.423.218.578.154.145.343.265.565.36.231.085.548.183.95.294.506.137.917.274 1.233.411.317.129.587.326.81.591.23.266.35.612.359 1.04 0 .386-.107.732-.321 1.04-.214.309-.518.553-.912.733-.385.17-.83.256-1.335.256zm10.545-7.268c.608 0 1.138.133 1.592.398.463.265.805.6 1.028 1.002v-1.285h1.181v7.192c0 .642-.137 1.211-.41 1.708a2.907 2.907 0 01-1.182 1.181c-.505.283-1.096.424-1.773.424-.924 0-1.695-.218-2.311-.655a2.56 2.56 0 01-1.092-1.785h1.156c.128.428.394.77.796 1.028.403.265.886.398 1.451.398.642 0 1.165-.202 1.567-.604.411-.402.617-.967.617-1.695V57.35c-.232.411-.574.754-1.028 1.028-.454.273-.984.41-1.592.41a3.257 3.257 0 01-1.708-.462 3.243 3.243 0 01-1.195-1.297c-.29-.556-.436-1.19-.436-1.9 0-.72.145-1.349.436-1.888.292-.548.69-.972 1.195-1.272.513-.3 1.083-.45 1.708-.45zm2.62 3.621c0-.53-.108-.993-.322-1.387a2.21 2.21 0 00-.873-.899 2.29 2.29 0 00-1.194-.32c-.437 0-.835.102-1.194.307-.36.206-.647.506-.86.9-.215.393-.322.856-.322 1.386 0 .54.107 1.01.321 1.413.214.394.501.698.86.912.36.205.758.308 1.195.308.437 0 .835-.103 1.194-.308.368-.214.66-.518.874-.912.213-.402.32-.869.32-1.4zm4.325-2.363c.205-.402.496-.715.873-.937.385-.223.852-.334 1.4-.334v1.207h-.309c-1.31 0-1.965.71-1.965 2.132v3.827h-1.168v-7.038h1.169v1.143zm10.043 2.106c0 .223-.013.458-.039.707h-5.625c.043.693.279 1.237.707 1.63.436.386.963.579 1.58.579.504 0 .924-.116 1.258-.347.342-.24.582-.557.719-.95h1.258a3.054 3.054 0 01-1.13 1.656c-.565.42-1.267.63-2.106.63-.668 0-1.267-.15-1.798-.45a3.205 3.205 0 01-1.233-1.271c-.3-.557-.449-1.199-.449-1.927s.145-1.365.437-1.913a3.035 3.035 0 011.22-1.259c.53-.3 1.138-.45 1.823-.45.668 0 1.259.146 1.772.437a2.97 2.97 0 011.182 1.208c.282.505.424 1.078.424 1.72zm-1.208-.244c0-.445-.098-.826-.295-1.142a1.858 1.858 0 00-.809-.733 2.412 2.412 0 00-1.117-.256c-.59 0-1.096.188-1.516.565-.41.376-.646.899-.706 1.566h4.443zm2.314.488c0-.719.145-1.348.436-1.887a3.167 3.167 0 011.195-1.272c.513-.3 1.083-.45 1.708-.45.616 0 1.151.133 1.605.399.454.265.792.6 1.014 1.002v-1.285h1.182v7.038h-1.182v-1.31c-.231.41-.578.753-1.04 1.027-.454.266-.984.398-1.592.398a3.19 3.19 0 01-1.695-.462 3.237 3.237 0 01-1.195-1.297c-.291-.556-.436-1.19-.436-1.9zm5.958.013c0-.53-.107-.993-.321-1.387a2.21 2.21 0 00-.873-.899 2.292 2.292 0 00-1.194-.32c-.437 0-.835.102-1.195.307a2.238 2.238 0 00-.86.9c-.214.393-.321.856-.321 1.386 0 .54.107 1.01.321 1.413.214.394.501.698.86.912.36.205.758.308 1.195.308.436 0 .834-.103 1.194-.308.368-.214.659-.518.873-.912.214-.402.321-.869.321-1.4zm4.582-2.543v4.149c0 .342.073.586.218.732.146.137.399.205.758.205h.861v.989h-1.054c-.65 0-1.138-.15-1.464-.45-.325-.3-.488-.792-.488-1.476V52.6h-.911v-.964h.911v-1.772h1.169v1.772h1.837v.963h-1.837z"
  fill="#2B2B2B"
/>
<rect y="110.146" width="77" height="24.438" rx="12.219" fill="#96D1C7" />
<ellipse cx="78.836" cy="99.826" rx="6.836" ry="6.826" fill="#96D1C7" />
<circle cx="28" cy="11" r="11" fill="#FF897C" />
</svg>