<svg width="13" height="12" viewBox="0 0 13 12" fill="none" xmlns="http://www.w3.org/2000/svg">
<path fill-rule="evenodd" clip-rule="evenodd" d="M4.68342 11.3818C4.41632 11.315 4.22895 11.075 4.22895 10.7997V6.22529L0.177503 1.59506C0.112671 1.52097 0.0670681 1.43206 0.0447178 1.33618C-0.0123043 1.09156 -0.0102081 0.874106 0.0253363 0.643156L0.0293016 0.618319C0.0209856 0.312342 0.220898 0 0.629038 0H11.4288C11.8369 0 12.0368 0.312342 12.0285 0.618319L12.0325 0.643156C12.068 0.874106 12.0701 1.09156 12.0131 1.33618C11.9907 1.43206 11.9451 1.52097 11.8803 1.59506L7.82886 6.22529V11.3997C7.82886 11.7901 7.46204 12.0765 7.08336 11.9818L4.68342 11.3818ZM5.28047 5.60476C5.37617 5.71413 5.42892 5.85452 5.42892 5.99985V10.3313L6.62889 10.6313V5.99985C6.62889 5.85452 6.68164 5.71413 6.77734 5.60476L10.6315 1.19997H1.42628L5.28047 5.60476Z" fill="#424347"/>
</svg>
