<svg width="20" height="5" viewBox="0 0 20 5" fill="none" xmlns="http://www.w3.org/2000/svg">
<path fill-rule="evenodd" clip-rule="evenodd" d="M17.619 4.7619C16.3039 4.7619 15.2381 3.6961 15.2381 2.38095C15.2381 1.0658 16.3039 0 17.619 0C18.9342 0 20 1.0658 20 2.38095C20 3.6961 18.9342 4.7619 17.619 4.7619ZM10 4.7619C8.68485 4.7619 7.61905 3.6961 7.61905 2.38095C7.61905 1.0658 8.68485 0 10 0C11.3152 0 12.381 1.0658 12.381 2.38095C12.381 3.6961 11.3152 4.7619 10 4.7619ZM2.38095 4.7619C1.0658 4.7619 0 3.6961 0 2.38095C0 1.0658 1.0658 0 2.38095 0C3.6961 0 4.7619 1.0658 4.7619 2.38095C4.7619 3.6961 3.6961 4.7619 2.38095 4.7619Z" fill="#BBBBBB"/>
</svg>
