<svg width="52" height="18" viewBox="0 0 52 18" fill="none" xmlns="http://www.w3.org/2000/svg">
<path fill-rule="evenodd" clip-rule="evenodd" d="M33.7267 0C35.308 0 36.5752 0.359288 37.3834 0.693381L36.8311 4.26681L36.4656 4.07675C35.7128 3.74265 34.7458 3.42112 33.4119 3.44391C31.8152 3.44391 31.077 4.17659 31.077 4.86209C31.0678 5.63446 31.9396 6.14386 33.3652 6.90667C35.7183 8.08358 36.8059 9.51058 36.7906 11.3865C36.7589 14.8094 33.9757 17.0213 29.6883 17.0213C27.8591 17.0006 26.0969 16.6022 25.1443 16.142L25.7169 12.4495L26.2427 12.7127C27.5823 13.3283 28.4496 13.5774 30.0821 13.5774C31.2544 13.5774 32.5127 13.0725 32.5227 11.9671C32.5303 11.2453 31.9967 10.7307 30.409 9.92246C28.8619 9.13358 26.8109 7.81211 26.8336 5.44265C26.8578 2.23733 29.6965 0 33.7267 0ZM0.66787 0.524229H7.25245C8.13913 0.558714 8.855 0.852374 9.10215 1.84209L10.5214 9.37738L10.5214 9.37926L10.5213 9.38009L10.5214 9.38152L10.9478 11.6392L14.9456 0.524229H19.2704L12.8421 16.7936L8.52143 16.7978L5.08198 3.66947C7.12848 4.78469 8.87078 6.07502 9.87981 7.85067C9.61966 7.28882 9.27686 6.65458 8.83823 6.0295C8.35274 5.33765 7.33214 4.45435 6.83628 4.0252L6.76314 3.96186C5.15637 2.56862 2.97427 1.44337 0.617126 0.847963L0.66787 0.524229ZM25.2195 0.543007H20.9901L18.3445 16.7874H22.5737L25.2195 0.543007ZM44.8776 0.543007H48.0816L51.4358 16.7874H47.5902C47.5902 16.7874 47.2087 14.9212 47.0846 14.3521C46.7643 14.3521 45.4267 14.3504 44.1691 14.3488L44.1675 14.3488C43.0524 14.3473 42.0007 14.3459 41.7772 14.3459C41.6162 14.7857 40.9041 16.7873 40.9041 16.7873H36.553L42.7071 1.89221C43.1428 0.833726 43.8855 0.543007 44.8776 0.543007ZM44.8177 5.96323C44.9334 5.64322 45.0838 5.22718 45.1923 4.91214V4.91227L45.4705 6.29904C45.4705 6.29904 46.2599 10.1403 46.4247 10.9458L43.0036 10.9479C43.3442 10.0208 44.6461 6.44927 44.6461 6.44927C44.6345 6.46978 44.7115 6.25696 44.8177 5.96323Z" fill="white"/>
</svg>
