<svg width="25" height="23" viewBox="0 0 25 23" fill="none" xmlns="http://www.w3.org/2000/svg">
<path fill-rule="evenodd" clip-rule="evenodd" d="M1.06992 1.6523C0.869837 2.18377 1.11384 2.78671 1.61455 2.99806L3.29592 3.54915L3.84864 5.13618C3.87369 5.20792 3.90543 5.27497 3.94282 5.3368L6.61918 15.7514C6.88564 16.5978 7.63132 17.1686 8.47169 17.1686H19.7312C20.5715 17.1686 21.3172 16.5978 21.5837 15.7514L23.8607 6.59037C24.2014 5.50465 23.6489 4.3319 22.6261 3.97034C22.427 3.8999 22.2181 3.86364 22.0082 3.86364H5.48663L5.12598 2.8281C4.93468 2.27902 4.53255 1.84184 4.01916 1.62428L2.33779 1.07422C1.83708 0.86184 1.26903 1.12084 1.06992 1.6523ZM6.19461 5.93562L8.47169 15.0967H19.7312L22.0082 5.93562H6.19461ZM8.63636 8.71781C8.63636 9.28968 9.07265 9.7538 9.61239 9.7538H18.3752C18.9149 9.7538 19.3512 9.28968 19.3512 8.71781C19.3512 8.14594 18.9149 7.68182 18.3752 7.68182H9.61239C9.07265 7.68182 8.63636 8.14594 8.63636 8.71781ZM9.59091 12.0587C9.59091 12.6306 10.0272 13.0947 10.5669 13.0947H17.3777C17.9174 13.0947 18.3537 12.6306 18.3537 12.0587C18.3537 11.4869 17.9174 11.0227 17.3777 11.0227H10.5669C10.0272 11.0227 9.59091 11.4869 9.59091 12.0587ZM11.5 18.1818C12.5538 18.1818 13.4091 19.0371 13.4091 20.0909C13.4091 21.1447 12.5538 22 11.5 22C10.4462 22 9.59091 21.1447 9.59091 20.0909C9.59091 19.0371 10.4462 18.1818 11.5 18.1818ZM19.1364 20.0909C19.1364 19.0371 18.2811 18.1818 17.2273 18.1818C16.1735 18.1818 15.3182 19.0371 15.3182 20.0909C15.3182 21.1447 16.1735 22 17.2273 22C18.2811 22 19.1364 21.1447 19.1364 20.0909Z" fill="#BBBBBB"/>
<path d="M1.61455 2.99806L1.57553 3.0905L1.5834 3.09308L1.61455 2.99806ZM1.06992 1.6523L1.16351 1.68754L1.16357 1.68739L1.06992 1.6523ZM3.29592 3.54915L3.39036 3.51626L3.37408 3.46954L3.32707 3.45413L3.29592 3.54915ZM3.84864 5.13618L3.7542 5.16907L3.75423 5.16915L3.84864 5.13618ZM3.94282 5.3368L4.03967 5.31191L4.03601 5.29766L4.02839 5.28506L3.94282 5.3368ZM6.61918 15.7514L6.52219 15.7763L6.5238 15.7814L6.61918 15.7514ZM21.5837 15.7514L21.6792 15.7815L21.6807 15.7755L21.5837 15.7514ZM23.8607 6.59037L23.7652 6.56038L23.7637 6.56625L23.8607 6.59037ZM22.6261 3.97034L22.5927 4.06462L22.5927 4.06463L22.6261 3.97034ZM5.48663 3.86364L5.39219 3.89653L5.41556 3.96364H5.48663V3.86364ZM5.12598 2.8281L5.22041 2.79521L5.22041 2.7952L5.12598 2.8281ZM4.01916 1.62428L4.05832 1.53187L4.05025 1.52923L4.01916 1.62428ZM2.33779 1.07422L2.2986 1.16661L2.30669 1.16926L2.33779 1.07422ZM8.47169 15.0967L8.37464 15.1208L8.3935 15.1967H8.47169V15.0967ZM6.19461 5.93562V5.83562H6.06671L6.09756 5.95974L6.19461 5.93562ZM19.7312 15.0967V15.1967H19.8093L19.8282 15.1208L19.7312 15.0967ZM22.0082 5.93562L22.1053 5.95974L22.1361 5.83562H22.0082V5.93562ZM1.65343 2.90593C1.20576 2.71697 0.980953 2.17244 1.16351 1.68754L0.976336 1.61707C0.758721 2.19509 1.02193 2.85646 1.57566 3.09019L1.65343 2.90593ZM3.32707 3.45413L1.64569 2.90303L1.5834 3.09308L3.26477 3.64418L3.32707 3.45413ZM3.94308 5.10329L3.39036 3.51626L3.20148 3.58204L3.7542 5.16907L3.94308 5.10329ZM4.02839 5.28506C3.9946 5.22918 3.96582 5.16843 3.94305 5.10321L3.75423 5.16915C3.78156 5.24741 3.81625 5.32075 3.85724 5.38855L4.02839 5.28506ZM3.84597 5.36169L6.52233 15.7763L6.71603 15.7265L4.03967 5.31191L3.84597 5.36169ZM6.5238 15.7814C6.80234 16.6663 7.58436 17.2686 8.47169 17.2686V17.0686C7.67828 17.0686 6.96893 16.5294 6.71457 15.7214L6.5238 15.7814ZM8.47169 17.2686H19.7312V17.0686H8.47169V17.2686ZM19.7312 17.2686C20.6185 17.2686 21.4005 16.6663 21.679 15.7814L21.4883 15.7214C21.2339 16.5294 20.5246 17.0686 19.7312 17.0686V17.2686ZM21.6807 15.7755L23.9578 6.61449L23.7637 6.56625L21.4866 15.7273L21.6807 15.7755ZM23.9562 6.6203C24.3116 5.48736 23.737 4.25698 22.6594 3.87606L22.5927 4.06463C23.5609 4.40683 24.0911 5.52194 23.7653 6.56043L23.9562 6.6203ZM22.6594 3.87607C22.4498 3.80189 22.2296 3.76364 22.0082 3.76364V3.96364C22.2066 3.96364 22.4042 3.9979 22.5927 4.06462L22.6594 3.87607ZM22.0082 3.76364H5.48663V3.96364H22.0082V3.76364ZM5.03154 2.86099L5.39219 3.89653L5.58106 3.83075L5.22041 2.79521L5.03154 2.86099ZM3.98014 1.71635C4.46632 1.92238 4.84909 2.33732 5.03154 2.861L5.22041 2.7952C5.02026 2.22073 4.59878 1.76129 4.05818 1.5322L3.98014 1.71635ZM2.30669 1.16926L3.98807 1.71932L4.05025 1.52923L2.36888 0.979176L2.30669 1.16926ZM1.16357 1.68739C1.34423 1.20516 1.85432 0.977774 2.29874 1.16628L2.37683 0.982158C1.81985 0.745907 1.19384 1.03652 0.976279 1.61722L1.16357 1.68739ZM8.56873 15.0725L6.29165 5.9115L6.09756 5.95974L8.37464 15.1208L8.56873 15.0725ZM19.7312 14.9967H8.47169V15.1967H19.7312V14.9967ZM21.9112 5.9115L19.6341 15.0725L19.8282 15.1208L22.1053 5.95974L21.9112 5.9115ZM6.19461 6.03562H22.0082V5.83562H6.19461V6.03562ZM9.61239 9.6538C9.13347 9.6538 8.73636 9.24022 8.73636 8.71781H8.53636C8.53636 9.33914 9.01182 9.8538 9.61239 9.8538V9.6538ZM18.3752 9.6538H9.61239V9.8538H18.3752V9.6538ZM19.2512 8.71781C19.2512 9.24022 18.8541 9.6538 18.3752 9.6538V9.8538C18.9757 9.8538 19.4512 9.33914 19.4512 8.71781H19.2512ZM18.3752 7.78182C18.8541 7.78182 19.2512 8.1954 19.2512 8.71781H19.4512C19.4512 8.09648 18.9757 7.58182 18.3752 7.58182V7.78182ZM9.61239 7.78182H18.3752V7.58182H9.61239V7.78182ZM8.73636 8.71781C8.73636 8.1954 9.13347 7.78182 9.61239 7.78182V7.58182C9.01182 7.58182 8.53636 8.09648 8.53636 8.71781H8.73636ZM10.5669 12.9947C10.088 12.9947 9.69091 12.5811 9.69091 12.0587H9.49091C9.49091 12.68 9.96637 13.1947 10.5669 13.1947V12.9947ZM17.3777 12.9947H10.5669V13.1947H17.3777V12.9947ZM18.2537 12.0587C18.2537 12.5811 17.8566 12.9947 17.3777 12.9947V13.1947C17.9782 13.1947 18.4537 12.68 18.4537 12.0587H18.2537ZM17.3777 11.1227C17.8566 11.1227 18.2537 11.5363 18.2537 12.0587H18.4537C18.4537 11.4374 17.9782 10.9227 17.3777 10.9227V11.1227ZM10.5669 11.1227H17.3777V10.9227H10.5669V11.1227ZM9.69091 12.0587C9.69091 11.5363 10.088 11.1227 10.5669 11.1227V10.9227C9.96637 10.9227 9.49091 11.4374 9.49091 12.0587H9.69091ZM13.5091 20.0909C13.5091 18.9819 12.609 18.0818 11.5 18.0818V18.2818C12.4986 18.2818 13.3091 19.0923 13.3091 20.0909H13.5091ZM11.5 22.1C12.609 22.1 13.5091 21.2 13.5091 20.0909H13.3091C13.3091 21.0895 12.4986 21.9 11.5 21.9V22.1ZM9.49091 20.0909C9.49091 21.2 10.391 22.1 11.5 22.1V21.9C10.5014 21.9 9.69091 21.0895 9.69091 20.0909H9.49091ZM11.5 18.0818C10.391 18.0818 9.49091 18.9819 9.49091 20.0909H9.69091C9.69091 19.0923 10.5014 18.2818 11.5 18.2818V18.0818ZM17.2273 18.2818C18.2259 18.2818 19.0364 19.0923 19.0364 20.0909H19.2364C19.2364 18.9819 18.3363 18.0818 17.2273 18.0818V18.2818ZM15.4182 20.0909C15.4182 19.0923 16.2287 18.2818 17.2273 18.2818V18.0818C16.1182 18.0818 15.2182 18.9819 15.2182 20.0909H15.4182ZM17.2273 21.9C16.2287 21.9 15.4182 21.0895 15.4182 20.0909H15.2182C15.2182 21.2 16.1182 22.1 17.2273 22.1V21.9ZM19.0364 20.0909C19.0364 21.0895 18.2259 21.9 17.2273 21.9V22.1C18.3363 22.1 19.2364 21.2 19.2364 20.0909H19.0364Z" fill="white"/>
</svg>
