<svg width="23" height="23" viewBox="0 0 23 23" fill="none" xmlns="http://www.w3.org/2000/svg">
<path fill-rule="evenodd" clip-rule="evenodd" d="M21.7908 21.7908C22.2031 21.3785 22.2031 20.712 21.7908 20.2997L17.3145 15.8234C18.544 14.2817 19.2362 12.4245 19.2362 10.5454C19.2362 5.21281 15.3256 0.900024 10.5454 0.900024C5.00443 0.900024 0.900024 5.00443 0.900024 10.5454C0.900024 15.3256 5.21281 19.2362 10.5454 19.2362C12.4245 19.2362 14.2817 18.544 15.8234 17.3145L20.2997 21.7908C20.712 22.2031 21.3785 22.2031 21.7908 21.7908ZM17.1271 10.5454C17.1271 13.9666 13.9666 17.1271 10.5454 17.1271C6.36516 17.1271 3.00909 14.1425 3.00909 10.5454C3.00909 6.16965 6.16965 3.00909 10.5454 3.00909C14.1425 3.00909 17.1271 6.36516 17.1271 10.5454Z" fill="#BBBBBB"/>
</svg>
