<svg width="18" height="18" viewBox="0 0 18 18" fill="none" xmlns="http://www.w3.org/2000/svg">
<g clip-path="url(#clip0_102_136)">
<path d="M16.1175 9.13643C16.1175 8.53899 16.069 8.10302 15.9641 7.65091H9.14194V10.3474H13.1464C13.0657 11.0176 12.6297 12.0268 11.6609 12.7049L11.6473 12.7952L13.8043 14.4662L13.9538 14.4811C15.3262 13.2136 16.1175 11.3486 16.1175 9.13643" fill="#4285F4"/>
<path d="M9.14194 16.2412C11.1038 16.2412 12.7508 15.5953 13.9538 14.4811L11.6609 12.7049C11.0473 13.1328 10.2238 13.4315 9.14194 13.4315C7.22045 13.4315 5.5896 12.164 5.00825 10.4121L4.92304 10.4193L2.68012 12.1551L2.65079 12.2367C3.84566 14.6103 6.30002 16.2412 9.14194 16.2412Z" fill="#34A853"/>
<path d="M5.00824 10.4121C4.85484 9.95996 4.76607 9.47551 4.76607 8.97498C4.76607 8.47438 4.85484 7.98999 5.00017 7.53788L4.9961 7.44159L2.72508 5.67789L2.65077 5.71323C2.15831 6.69822 1.87573 7.80431 1.87573 8.97498C1.87573 10.1456 2.15831 11.2517 2.65077 12.2367L5.00824 10.4121" fill="#FBBC05"/>
<path d="M9.14194 4.51835C10.5063 4.51835 11.4267 5.10771 11.9515 5.60023L14.0022 3.59798C12.7428 2.42732 11.1038 1.70877 9.14194 1.70877C6.30003 1.70877 3.84566 3.33962 2.65079 5.71322L5.00018 7.53787C5.5896 5.78591 7.22045 4.51835 9.14194 4.51835" fill="#EB4335"/>
</g>
<defs>
<clipPath id="clip0_102_136">
<rect width="14.25" height="14.5825" fill="white" transform="translate(1.875 1.70877)"/>
</clipPath>
</defs>
</svg>
