<svg width="188" height="189" viewBox="0 0 188 189" fill="none" xmlns="http://www.w3.org/2000/svg">
<path d="M93.992 0C108.571 0 122.368 3.33945 134.696 9.29587C129.65 13.3096 124.971 17.1628 120.612 20.8716C112.308 17.8372 103.35 16.1835 94.008 16.1835C72.4981 16.1835 53.0162 24.9495 38.9318 39.1261C24.8314 53.3027 16.1125 72.8738 16.1125 94.5C16.1125 116.126 24.8314 135.697 38.9318 149.874C53.0322 164.05 72.4981 172.816 94.008 172.816C115.518 172.816 135 164.05 149.084 149.874C163.185 135.697 171.904 116.126 171.904 94.5C171.904 89.3624 171.408 84.3211 170.466 79.4564C174.506 74.1583 178.642 68.8761 182.874 63.6422C186.196 73.3073 188 83.695 188 94.5C188 120.589 177.477 144.222 160.47 161.321C143.463 178.42 119.957 189 94.008 189C68.0588 189 44.5528 178.42 27.5461 161.321C10.5234 144.222 0 120.589 0 94.5C0 68.4105 10.5234 44.7775 27.5301 27.6789C44.5368 10.5803 68.0428 0 93.992 0ZM50.2057 78.9748L73.1368 78.6697L74.8455 79.1193C79.4764 81.8005 83.8359 84.867 87.9079 88.3349C90.8462 90.8394 93.6567 93.5688 96.3234 96.5229C104.547 83.2133 113.314 70.9954 122.576 59.7569C132.716 47.4427 143.479 36.2683 154.785 26.0734L157.021 25.2064H182.044L176.998 30.8417C161.492 48.1651 147.423 66.0665 134.712 84.5298C122.001 103.009 110.631 122.083 100.523 141.718L97.3774 147.819L94.487 141.605C89.1535 130.094 82.766 119.53 75.1489 110.089C67.5318 100.649 58.6692 92.2683 48.3374 85.1399L50.2057 78.9748Z" fill="#21BF73"/>
</svg>
