<svg width="10" height="12" viewBox="0 0 10 12" fill="none" xmlns="http://www.w3.org/2000/svg">
<path fill-rule="evenodd" clip-rule="evenodd" d="M9.07965 3.18038C8.87236 3.41012 8.53627 3.41012 8.32897 3.18038L7.27163 2.00855V10.8234C7.27163 11.1483 7.03398 11.4117 6.74082 11.4117C6.44766 11.4117 6.21 11.1483 6.21 10.8234V2.00855L5.15267 3.18038C4.94537 3.41012 4.60928 3.41012 4.40198 3.18038C4.19469 2.95064 4.19469 2.57815 4.40198 2.34841L6.36548 0.172307C6.57277 -0.0574356 6.90886 -0.0574356 7.11616 0.172307L9.07965 2.34841C9.28695 2.57815 9.28695 2.95064 9.07965 3.18038ZM2.49431 0.411231C2.20115 0.411231 1.96349 0.674618 1.96349 0.999523V9.99145L0.906156 8.81962C0.69886 8.58988 0.362767 8.58988 0.155472 8.81962C-0.0518239 9.04936 -0.0518239 9.42185 0.155472 9.65159L2.11897 11.8277C2.32626 12.0574 2.66235 12.0574 2.86965 11.8277L4.83314 9.65159C5.04044 9.42185 5.04044 9.04936 4.83314 8.81962C4.62585 8.58988 4.28976 8.58988 4.08246 8.81962L3.02512 9.99145V0.999523C3.02512 0.674618 2.78747 0.411231 2.49431 0.411231Z" fill="#424347"/>
</svg>
