<svg width="20" height="19" viewBox="0 0 20 19" fill="none" xmlns="http://www.w3.org/2000/svg">
<path fill-rule="evenodd" clip-rule="evenodd" d="M8.14286 12.714V18.102C8.14286 18.5977 7.73752 19 7.2381 19H0.904762C0.405333 19 0 18.5977 0 18.102V8.18891C0 7.37083 0.374571 6.59675 1.01876 6.08578L7.69138 0.786653C9.01324 -0.262218 10.8915 -0.262218 12.2134 0.786653L18.886 6.08578C19.5302 6.59675 19.9048 7.37083 19.9048 8.18891V18.102C19.9048 18.5977 19.4994 19 19 19H12.6667C12.1672 19 11.7619 18.5977 11.7619 18.102V12.714C11.7619 11.912 10.9793 11.1119 9.95238 10.9287C8.92548 11.1119 8.14286 11.912 8.14286 12.714ZM18.0952 8.18891C18.0952 7.91592 17.9704 7.65819 17.756 7.48757L11.0833 2.18934C10.422 1.6649 9.48281 1.6649 8.82143 2.18934L2.14881 7.48757C1.93438 7.65819 1.80952 7.91592 1.80952 8.18891V17.204H6.33333V12.714C6.33333 10.9224 7.89767 9.38236 9.83476 9.12912C9.91257 9.11925 9.99219 9.11925 10.07 9.12912C12.0071 9.38236 13.5714 10.9224 13.5714 12.714V17.204H18.0952V8.18891Z" fill="#424347"/>
</svg>
